<?xml version="1.0"?>
<svg xmlns="http://www.w3.org/2000/svg" xmlns:xlink="http://www.w3.org/1999/xlink" version="1.1" id="Capa_1" x="0px" y="0px" viewBox="0 0 512 512" style="enable-background:new 0 0 512 512;" xml:space="preserve" width="512px" height="512px" class=""><g><g>
	<g>
		<path d="M480,352h-16v-64c0-90.736-58.656-170.272-144-197.808V80c0-17.648-14.352-32-32-32h-64c-17.648,0-32,14.352-32,32v10.192    C106.64,117.728,48,197.248,48,288v64H32c-17.648,0-32,14.352-32,32v48c0,17.648,14.352,32,32,32h448c17.648,0,32-14.352,32-32    v-48C512,366.352,497.648,352,480,352z M224,80h64v96h-64V80z M224,208h64v32l-64,0.016V208z M80,288    c0-73.248,45.168-137.84,112-163.872V240c0,17.648,14.352,32,32,32h64c17.648,0,32-14.352,32-32V124.128    C386.832,150.16,432,214.752,432,288v16H80V288z M80,336h352v16H80V336z M480,432l-448,0.016V384h448V432z" data-original="#000000" class="active-path" data-old_color="#000000" fill="#2F479D"/>
	</g>
</g></g> </svg>
