<?xml version="1.0"?>
<svg xmlns="http://www.w3.org/2000/svg" height="512px" viewBox="0 0 64 64" width="512px" class=""><g><g id="Safety_document_shield_security_file"><path d="m48.8 24.6-4.8-3.6-3 2.25-1.8 1.35a11.984 11.984 0 0 1 -7.2 2.4h-5v17.78a12.038 12.038 0 0 0 6.39 10.6l7.57 4.01 3.04 1.61 10.61-5.62a12 12 0 0 0 6.39-10.6v-17.78h-5a11.984 11.984 0 0 1 -7.2-2.4zm8.2 20.18a7.977 7.977 0 0 1 -4.26 7.07l-8.74 4.62-8.74-4.62a7.977 7.977 0 0 1 -4.26-7.07v-13.78h1a16.119 16.119 0 0 0 9.6-3.2l2.4-1.8 2.4 1.8a16.119 16.119 0 0 0 9.6 3.2h1z" fill="#bddbff" data-original="#BDDBFF" class=""/><path d="m35 15v-12h-6v12l3-2z" fill="#bddbff" data-original="#BDDBFF" class=""/><g fill="#57a4ff"><path d="m61 26h-5a11.044 11.044 0 0 1 -6.6-2.2l-4.8-3.6a.99.99 0 0 0 -1.2 0l-1.4 1.05v-16.25a3.009 3.009 0 0 0 -3-3h-34a3.009 3.009 0 0 0 -3 3v54a3.009 3.009 0 0 0 3 3h34a3 3 0 0 0 2.41-1.24l2.12 1.12a.98.98 0 0 0 .94 0l10.61-5.62a12.963 12.963 0 0 0 6.92-11.48v-17.78a1 1 0 0 0 -1-1zm-31-22h4v9.13l-1.45-.96a.975.975 0 0 0 -1.1 0l-1.45.96zm9 56h-34a1 1 0 0 1 -1-1v-54a1 1 0 0 1 1-1h23v11a1 1 0 0 0 1.55.83l2.45-1.63 2.45 1.63a1 1 0 0 0 1.55-.83v-11h3a1 1 0 0 1 1 1v17.75l-1.4 1.05a11.044 11.044 0 0 1 -6.6 2.2h-26v2h20v4h-20v2h20v4h-20v2h20v4h-20v2h20.06a13.171 13.171 0 0 0 1.03 4h-21.09v2h22.19a13 13 0 0 0 4.27 4h-26.46v2h30v-.1l3.59 1.9a1.022 1.022 0 0 1 -.59.2zm21-15.22a10.987 10.987 0 0 1 -5.85 9.72l-10.15 5.37-10.15-5.37a10.987 10.987 0 0 1 -5.85-9.72v-16.78h4a13.034 13.034 0 0 0 7.8-2.6l4.2-3.15 4.2 3.15a13.034 13.034 0 0 0 7.8 2.6h4z" data-original="#57A4FF" class="active-path" style="fill:#FFFFFF" data-old_color="#57A4FF"/><path d="m57 30h-1a15.113 15.113 0 0 1 -9-3l-2.4-1.8a.99.99 0 0 0 -1.2 0l-2.4 1.8a15.113 15.113 0 0 1 -9 3h-1a1 1 0 0 0 -1 1v13.78a8.961 8.961 0 0 0 4.79 7.95l8.74 4.63a1.059 1.059 0 0 0 .94 0l8.74-4.63a8.961 8.961 0 0 0 4.79-7.95v-13.78a1 1 0 0 0 -1-1zm-1 14.78a6.967 6.967 0 0 1 -3.73 6.18l-8.27 4.38-8.28-4.38a6.988 6.988 0 0 1 -3.72-6.18v-12.78a17.1 17.1 0 0 0 10.2-3.4l1.8-1.35 1.8 1.35a17.1 17.1 0 0 0 10.2 3.4z" data-original="#57A4FF" class="active-path" style="fill:#FFFFFF" data-old_color="#57A4FF"/><path d="m6 8h4v2h-4z" data-original="#57A4FF" class="active-path" style="fill:#FFFFFF" data-old_color="#57A4FF"/><path d="m12 8h12v2h-12z" data-original="#57A4FF" class="active-path" style="fill:#FFFFFF" data-old_color="#57A4FF"/><path d="m6 14h18v2h-18z" data-original="#57A4FF" class="active-path" style="fill:#FFFFFF" data-old_color="#57A4FF"/><path d="m6 20h30v2h-30z" data-original="#57A4FF" class="active-path" style="fill:#FFFFFF" data-old_color="#57A4FF"/></g></g></g> </svg>
