<svg height="512" viewBox="0 0 55 60" width="512" xmlns="http://www.w3.org/2000/svg"><g id="Page-1" fill="none" fill-rule="evenodd"><g id="016---Roman-Helmet" fill-rule="nonzero" transform="translate(-1)"><g id="Icons" transform="translate(2)"><path id="Shape" d="m34 17.58v3.72c-.9872004-.2017307-1.9924015-.3022508-3-.3-7.2949314.0044653-13.5305661 5.2528615-14.78 12.44-.05-.27-.09-.52-.12-.79-.0675726-.5473891-.1009706-1.0984568-.1-1.65-.0011346-4.4219128 2.0868806-8.5844379 5.6319594-11.2274911s8.1304558-3.4559127 12.3680406-2.1925089z" fill="#a4c2f7"/><path id="Shape" d="m39.47 50.83c-.3025057.7569395-.3273036 1.596526-.07 2.37l.42 1.27c.3493978 1.0486766.1739039 2.2013506-.4717494 3.0985314-.6456532.8971807-1.6829007 1.4296964-2.7882506 1.4314686-.9972559-.0004176-1.9537206-.3959482-2.66-1.1l-1.8-1.8c-.7040518-.7062794-1.0995824-1.6627441-1.1-2.66v-10.68l7.97-1.87.03.11.18.55 1.35 4.04c.1385187.4125626.2094334.8448047.21 1.28-.0005763.5171177-.0989729 1.0294589-.29 1.51z" fill="#a4c2f7"/><path id="Shape" d="m40.45 48.38c.1910271-.4805411.2894237-.9928823.29-1.51-.0005666-.4351953-.0714813-.8674374-.21-1.28l-1.35-4.04-.18-.55-.03-.11-2.792.655 1.35 4.04c.1385187.4125626.2094334.8448047.21 1.28-.0005763.5171177-.0989729 1.0294589-.29 1.51l-.98 2.45c-.3025057.7569395-.3273036 1.596526-.07 2.37l.42 1.27c.5578369 1.6522129-.2179671 3.4594052-1.8 4.193.4840952.2215723 1.0096209.3381286 1.542.342 1.1068665.0022542 2.1469158-.5293105 2.7934555-1.427723s.8202418-2.0534411.4665445-3.102277l-.42-1.27c-.2573036-.773474-.2325057-1.6130605.07-2.37z" fill="#7facfa"/><path id="Shape" d="m45.33 32.12c-.2180489-.0273721-.4385778.0259817-.62.15-.89.59-2.39 1.1-4.98.83-.4134252-.0450439-.8089142.1809498-.98.56-1.71 3.89-6.09 4.95-8.35 5.23-.1643664-.2592245-.3554066-.5005385-.57-.72-.7051043-.7029501-1.6456219-1.1197704-2.64-1.17-1.120226-.0065861-2.1958994.4382614-2.9842605 1.2341486s-1.2229686 1.8757386-1.2057395 2.9958514v7.69c-.0043503.6947052-.3624542 1.3392923-.95 1.71-8.93 5.64-12.32-.04-13.49-3.46-.19120741-.5396759-.14195386-1.1354209.13528759-1.6363676.27724145-.5009466.75588295-.8590533 1.31471241-.9836324l5.14-1.14c1.0375896-.2301032 1.7140002-1.2315423 1.54-2.28l-.61-3.6c-.05-.47-.08-1.04-.08-1.53-.0034157-.8515687.0702177-1.7017004.22-2.54v-.02c1.2494339-7.1871385 7.4850686-12.4355347 14.78-12.44 1.0075985-.0022508 2.0127996.0982693 3 .3 4.8994759 1.0068628 8.9775839 4.3840461 10.88 9.01.2386193.577781.3902676 1.1877443.45 1.81z" fill="#e8edfc"/><path id="Shape" d="m24.19 37c-1.120226-.0065861-2.1958994.4382614-2.9842605 1.2341486s-1.2229686 1.8757386-1.2057395 2.9958514v7.69c-.0043503.6947052-.3624542 1.3392923-.95 1.71-1.5651407 1.0526614-3.31101 1.8076227-5.15 2.227 2 .452 4.646-.014 8.15-2.227.5875458-.3707077.9456497-1.0152948.95-1.71v-7.69c.0019212-1.6885578.9897047-3.2204627 2.527-3.919-.4241-.1809041-.8765979-.2861599-1.337-.311z" fill="#cad9fc"/><path id="Shape" d="m44.88 30.31c-1.9024161-4.6259539-5.9805241-8.0031372-10.88-9.01-.9872004-.2017307-1.9924015-.3022508-3-.3-.5 0-.988.028-1.473.076.4945436.0491414.9862044.1239086 1.473.224 4.8994759 1.0068628 8.9775839 4.3840461 10.88 9.01.2386193.577781.3902676 1.1877443.45 1.81-.2180489-.0273721-.4385778.0259817-.62.15-.89.59-2.39 1.1-4.98.83-.4134252-.0450439-.8089142.1809498-.98.56-1.1427495 2.3316345-3.2527288 4.0430215-5.77 4.68.1529466.1730748.2933055.3568781.42.55 2.26-.28 6.64-1.34 8.35-5.23.1710858-.3790502.5665748-.6050439.98-.56 2.59.27 4.09-.24 4.98-.83.1814222-.1240183.4019511-.1773721.62-.15-.0597324-.6222557-.2113807-1.232219-.45-1.81z" fill="#cad9fc"/><path id="Shape" d="m46.89 38.11c.0603477.5058662-.2654978.9774846-.76 1.1l-5.94 1.39-.01.01-1.21.28-7.97 1.87v-1.76c.0008036-.7424035-.2071045-1.4700819-.6-2.1v-.01c2.26-.28 6.64-1.34 8.35-5.23.1710858-.3790502.5665748-.6050439.98-.56 2.59.27 4.09-.24 4.98-.83.1814222-.1240183.4019511-.1773721.62-.15.4729737.0295252.8586921.3900881.92.86z" fill="#a4c2f7"/><path id="Shape" d="m46.25 32.98c-.0613079-.4699119-.4470263-.8304748-.92-.86-.2180489-.0273721-.4385778.0259817-.62.15-.4560638.2929046-.9565376.5100468-1.482.643 0 .024.019.043.022.067l.64 5.13c.0603477.5058662-.2654978.9774846-.76 1.1l-5.94 1.39-.01.01-1.21.28-4.97 1.166v.7l7.97-1.87 1.21-.28.01-.01 5.94-1.39c.4945022-.1225154.8203477-.5941338.76-1.1z" fill="#7facfa"/><path id="Shape" d="m51.93 12.05c-3.3772876 2.699225-7.6092054 4.1004048-11.93 3.95v.04c-5.5203365-3.6950787-12.6275523-4.0477601-18.4865896-.9173602-5.8590372 3.1303999-9.5164918 9.234491-9.5134104 15.8773602 0 .34.01.67.03 1.01-.0108937.0004995-.0215847-.0030642-.03-.01-2.64 3.96-7.02 6.17-9.7 7.23-.26460271.1036372-.56080223.0898028-.81459304-.0380467s-.44120131-.3576382-.51540696-.6319533c-.64393679-2.4684139-.96990841-5.0089763-.97-7.56-.00446697-3.1663207.49857949-6.3128931 1.49-9.32.13518751-.4090724.51918636-.6839347.95-.68h4.56l-2.98-3.72c-.25197252-.3214709-.2874058-.7624184-.09-1.12 1.48504017-2.6126856 3.3561387-4.9861151 5.55-7.04.33178321-.29772244.8196185-.34244067 1.2-.11l3.32 1.99-1.22-3.67c-.1411949-.42001649.009058-.88295777.37-1.14 2.7091854-1.85082795 5.7064958-3.23966058 8.87-4.11.3986161-.10297991.8201439.04278202 1.07.37l1.91 2.55.6-2.98c.0783186-.42542507.4212965-.75226285.85-.81 9.5399898-1.13546142 19.04671 2.36681875 25.57 9.42.1800153.1985704.2720199.4615331.2550666.7290183s-.1414216.5167278-.3450666.6909817z" fill="#e8edfc"/><path id="Shape" d="m52.02 10.63c-5.6693251-6.14952846-13.6559223-9.64230461-22.02-9.63-.478 0-.952.02-1.425.042 7.806726.39894502 15.1463408 3.84097127 20.445 9.588.1800153.1985704.2720199.4615331.2550666.7290183s-.1414216.5167278-.3450666.6909817c-2.6452367 2.1450501-5.8639841 3.4629487-9.254 3.789.107.069.219.13.324.2v-.039c4.3207946.1504048 8.5527124-1.250775 11.93-3.95.203645-.1742539.3281133-.4234965.3450666-.6909817s-.0750513-.5304479-.2550666-.7290183z" fill="#cad9fc"/><path id="Shape" d="m28.559 13.073c-.515-.044-1.033-.073-1.559-.073-9.9411255 0-18 8.0588745-18 18 0 .34.01.67.03 1.01-.0108937.0004995-.02158475-.0030642-.03-.01-2.05359564 2.8449424-4.83047716 5.0890963-8.043 6.5 0 .019.008.038.013.057.07420565.2743151.26161615.5041038.51540696.6319533s.54999033.1416839.81459304.0380467c2.68-1.057 7.06-3.267 9.7-7.227.0084153.0069358.0191063.0104995.03.01-.02-.34-.03-.67-.03-1.01.0040878-9.377993 7.2107984-17.1800764 16.559-17.927z" fill="#cad9fc"/><path id="Shape" d="m40 16.04c-.1563117 1.035357-.8101739 1.928346-1.75 2.39-.5711306.3577535-1.2874591.3918644-1.89.09-.7561421-.3851173-1.5461448-.6997794-2.36-.94-4.2375848-1.2634038-8.8229618-.4505443-12.3680406 2.1925089s-5.633094 6.8055783-5.6319594 11.2274911c-.2649447.2669494-.5602974.5018891-.88.7-.9173592.6023439-2.0712686.7181083-3.09.31-.02-.34-.03-.67-.03-1.01-.0030814-6.6428692 3.6543732-12.7469603 9.5134104-15.8773602 5.8590373-3.1303999 12.9662531-2.7777185 18.4865896.9173602z" fill="#e8edfc"/></g><g id="Icons_copy_2" fill="#fff" transform="translate(1 8)"><path id="Shape" d="m12.878 1.728-1.2-.718c-.3803815-.23244067-.8682168-.18772244-1.2.11-2.1938613 2.05388488-4.06495983 4.42731437-5.55 7.04-.1974058.35758165-.16197252.79852911.09 1.12l2.982 3.72h3l-2.98-3.72c-.25197252-.32147089-.2874058-.76241835-.09-1.12 1.34842345-2.3595275 3.0131792-4.52357542 4.948-6.432z"/><path id="Shape" d="m2.49 13.68c-1.78628323 5.4396656-1.97129592 11.2781525-.533 16.82.0593943.2885908.24303464.5363012.50190321.6770116s.56661576.1600982.84109679.0529884c.5-.2 1.065-.448 1.657-.727-1.43888432-5.5427933-1.2538689-11.3824077.533-16.823.13518751-.4090724.51918636-.6839347.95-.6800417l-3 .0000417c-.43081364-.0039347-.81481249.2709276-.95.68z"/><path id="Shape" d="m20 23c-.7584788.816653-1.8296998 1.2703937-2.944 1.247.0366667.4073333.0913333.805.164 1.193-.2377813 1.3500698-.2849076 2.7268308-.14 4.09l.61 3.6c.1740002 1.0484577-.5024104 2.0498968-1.54 2.28l-5.14 1.14c-.5588295.1245791-1.03747096.4826858-1.31471241.9836324-.27724145.5009467-.326495 1.0966917-.13528759 1.6363676 1.595 4.662 4.568 6.369 8.291 5.67-2.313-.519-4.153-2.343-5.291-5.67-.1912074-.5396759-.1419539-1.1354209.1352876-1.6363676.2772414-.5009466.7558829-.8590533 1.3147124-.9836324l5.14-1.14c1.0375896-.2301032 1.7140002-1.2315423 1.54-2.28l-.61-3.6c-.1449076-1.3631692-.0977813-2.7399302.14-4.09-.1475746-.8049244-.2212147-1.6216602-.22-2.44z"/></g><g id="Icons_copy"><path id="Shape" d="m3.036 29.571-2-.1c.13176484-2.7576533.63634931-5.4847641 1.5-8.107l1.9.626c-.80687056 2.4521836-1.2778197 5.0023732-1.4 7.581z" fill="#fff"/><g fill="#428dff"><path id="Shape" d="m28.543 24.853c-3.780557 1.4998483-6.5370747 4.8216895-7.314 8.814-.1064767.5417684.2462732 1.067312.788 1.174.0638755.0127583.1288629.0191231.194.019.4771156-.0004779.8874398-.3379486.98-.806.6473624-3.3257764 2.9430888-6.0933101 6.092-7.344.3429262-.1243128.5909617-.4254846.6472272-.7858818.0562656-.3603973-.0881655-.7228414-.3768805-.9457666-.2887151-.2229252-.675908-.2709634-1.0103467-.1253516z"/><path id="Shape" d="m3.481 25.734c.09228886-.5338625-.25181873-1.0458382-.781-1.162-.35526997-.0747227-.72313156.0489698-.96108033.3231606-.23794878.2741908-.3086038.6558056-.18459431.9970121.1240095.3412065.42320205.5884023.78167464.6458273.53504237.080393 1.03895458-.2734458 1.145-.804z"/><path id="Shape" d="m37.9 19.414c.9134658.4493644 1.9926763.4037852 2.865-.121.9271368-.5070289 1.647217-1.3230019 2.035-2.306 4.2837149-.0126818 8.4354811-1.4833634 11.772-4.17.4119775-.3429797.665047-.8400806.7-1.375.0376634-.5466354-.1490201-1.0850203-.517-1.491-5.8717449-6.33621068-14.1164314-9.94169852-22.755-9.951-1.2259033-.00099022-2.4507647.07147296-3.668.217-.858236.10853011-1.549416.75653657-1.713 1.606l-.159.789-.582-.777c-.4975945-.64631889-1.3350731-.92994918-2.123-.719-3.2716932.89723051-6.370393 2.33504343-9.168 4.254-.7293732.50667302-1.0372726 1.43362916-.756 2.276l.369 1.109-1-.6c-.7645052-.45921165-1.7395846-.36332885-2.4.236-2.26757405 2.1221912-4.20140954 4.5748853-5.736 7.275-.39728428.7143573-.32711778 1.5973514.178 2.24l1.676 2.094h-2.478c-.86645863-.0053607-1.6359646.5527336-1.9 1.378-.16785273.5286488.1224704 1.0936623.65 1.265.25102004.0810412.52398051.0587707.75854401-.0618888.2345635-.1206594.41141291-.3297711.49145599-.5811112h4.56c.38436288-.0002401.73457267-.2207567.90089846-.5672687.16632584-.3465121.11932844-.7576881-.12089846-1.0577313l-2.98-3.72c1.43052855-2.5240661 3.2406812-4.8131485 5.367-6.787l3.32 1.99c.3587047.2149253.8132637.1839643 1.1395127-.0776147.3262489-.2615789.4552901-.6985353.3234873-1.0953853l-1.23-3.666c2.6141251-1.79379739 5.5111422-3.13548477 8.57-3.969l1.91 2.55c.2360122.31572078.6354773.46333853 1.020081.37695927.3846037-.08637927.6825806-.39063757.760919-.77695927l.589-3c1.1382972-.13528732 2.2836934-.20207427 3.43-.2 8.0752153.01002334 15.7833987 3.3740684 21.282 9.288-3.1437733 2.4987073-7.0676139 3.8094868-11.082 3.702-5.8449788-3.7365875-13.2630313-3.9862092-19.34598-.6510035-6.0829487 3.3352058-9.8613894 9.7237268-9.85402 16.6610035 0 .216.012.429.019.642-2.4 3.467-6.245 5.533-9.085 6.65-.7397407-2.8446797-1.04320012-5.7852016-.9-8.721.01830638-.5424536-.39298328-1.0035032-.934-1.047-.26841931-.0211772-.53382317.068337-.73458564.2477579-.20076247.1794208-.31941771.433139-.32841436.7022421-.15532373 3.1428559.16940699 6.291024.963 9.336.14220123.5445013.50949551 1.00271 1.01 1.26.28521659.1476981.6018101.2245312.923.224.25057532-.0003314.4989836-.0464208.733-.136 3.8220259-1.3990337 7.1882857-3.8173873 9.734-6.993.915644.1806135 1.8650338.0643045 2.71-.332.027.212.06.422.1.633-.1399401.8374078-.2101809 1.68498-.21 2.534.0016673.5679181.0330435 1.1353602.094 1.7l.606 3.59c.0894096.5253143-.2488076 1.0284618-.769 1.144l-5.141 1.14c-.8296644.1855165-1.5416596.7143338-1.959 1.455-.42017935.7530605-.50052356 1.6492075-.221 2.465.756 2.208 2.287 5.062 5.29 6.12 2.687.946 5.94.225 9.685-2.141.8786285-.5516922 1.4128345-1.5155282 1.415-2.553v-7.69c.0034142-.9125257.3786062-1.7842422 1.039-2.414.5546927-.5544112 1.3164729-.85078 2.1-.817.7448813.0398054 1.4491723.3519141 1.979.877.1459923.1496409.2775728.3126936.393.487.010967.0227386.0233237.0447803.037.066.2947534.4710319.4513609 1.015347.452 1.571v12.44c.0034694 1.2621471.5039207 2.4721399 1.393 3.368l1.8 1.8c.8953493.8891116 2.1051908 1.3892897 3.367 1.392 1.4278258.0019847 2.76924-.6837353 3.6038291-1.842248s1.0602175-2.6480414.6061709-4.001752l-.422-1.277c-.1819349-.5481811-.1635089-1.1431281.052-1.679l.982-2.455c.4435636-1.1096429.4789993-2.3406794.1-3.474l-1.221-3.661 6.1-1.433c.9973072-.2340483 1.6565354-1.1838205 1.527-2.2l-.648-5.117c-.0785743-.6373366-.4619546-1.1967436-1.028-1.5-.0858203-.4907637-.2222139-.9713249-.407-1.434-1.9119881-4.6695108-5.918041-8.16095-10.805-9.417v-1.509c.3.132.607.264.9.414zm-4.9.586c-5.434849-.0066121-10.4991222 2.7542799-13.438 7.326.5203015-1.6998197 1.3769303-3.2777307 2.519-4.64 3.1186973-3.8026662 8.1390922-5.4841624 12.919-4.327v1.779c-.6631614-.0874144-1.3311172-.1335034-2-.138zm-17.993 11.236c0-.079-.007-.157-.007-.236-.0082041-6.145363 3.3052749-11.8153923 8.663371-14.8247709s11.9241983-2.8882232 17.167629.3167709c-.2532422.456493-.6308835.8317068-1.089 1.082-.2804133.1757613-.6306421.1979563-.931.059-.808705-.4133468-1.6535668-.7517602-2.524-1.011-4.4562527-1.2940532-9.2602083-.4623995-13.0221134 2.2543692-3.761905 2.7167686-6.0620016 7.0155118-6.2348866 11.6526308-.1364931.116584-.2812003.2231928-.433.319-.4710144.3050895-1.0313984.4418373-1.59.388zm26.574 14.669c.1047341.3109772.1584288.6368602.159.965-.000287.389778-.074604.7759547-.219 1.138l-.982 2.455c-.3885333.9747335-.4197057 2.0554926-.088 3.051l.424 1.281c.0835635.2463631.1258003.504852.125.765.0032775.6504995-.2576408 1.2744659-.723 1.729-1.0567473.9439148-2.6662221.9000599-3.67-.1l-1.8-1.8c-.514518-.5184751-.8043953-1.2185628-.807-1.949v-9.888l6.3-1.481zm-7.581-4.405v-.5c-.0000054-.4505261-.0612322-.8989621-.182-1.333 2.64-.541 6.232-1.944 7.81-5.57 1.9339115.3271082 3.9214716-.0221627 5.628-.989l.64 5.124zm11.956-10.8c.0977595.2367892.1779757.4804461.24.729-.01.006-.022.008-.032.015-1.328536.7023031-2.8543912.938242-4.333.67-.8436894-.0836747-1.6473162.3780088-2 1.149-1.37 3.119-4.749 4.189-6.982 4.557-.099618-.1235987-.2054196-.2420832-.317-.355-.8797661-.8778386-2.0529075-1.3995909-3.294-1.465-1.3303985-.0539855-2.6246237.4405676-3.58 1.368-1.0552784 1.0080082-1.6540175 2.4026586-1.658 3.862v7.69c-.0028364.3518526-.1854335.677811-.484.864-3.2 2.022-5.873 2.675-7.948 1.944-2.248-.792-3.45-3.092-4.062-4.881-.0980831-.2774075-.0714673-.5836712.073-.84.1364955-.2463074.3727243-.4216563.648-.481l5.139-1.139c1.5558462-.3487705 2.5695195-1.8506386 2.311-3.424l-.6-3.539c-.049-.44-.077-.972-.077-1.424-.0041272-.7913995.0628082-1.5815716.2-2.361 0-.024.008-.052.011-.08 1.085653-6.1369819 6.0972955-10.8173806 12.2940794-11.4815038 6.1967838-.6641232 12.0864329 2.8479597 14.4479206 8.6155038z"/><path id="Shape" d="m37 47h2c.5522847 0 1-.4477153 1-1s-.4477153-1-1-1h-2c-.5522847 0-1 .4477153-1 1s.4477153 1 1 1z"/><path id="Shape" d="m37 51h1c.5522847 0 1-.4477153 1-1s-.4477153-1-1-1h-1c-.5522847 0-1 .4477153-1 1s.4477153 1 1 1z"/><path id="Shape" d="m37 55h1c.5522847 0 1-.4477153 1-1s-.4477153-1-1-1h-1c-.5522847 0-1 .4477153-1 1s.4477153 1 1 1z"/><circle id="Oval" cx="33" cy="25" r="1"/></g></g></g></g></svg>