<?xml version="1.0"?>
<svg xmlns="http://www.w3.org/2000/svg" id="Layer_1" height="512px" viewBox="0 0 128 128" width="512px" data-name="Layer 1"><g><path d="m96.347 73.638h-10.374a26.068 26.068 0 0 0 4.137-10.819 7.255 7.255 0 0 0 3.787-12.1 6.347 6.347 0 0 0 -3.522-11.489v-.245a26.42 26.42 0 0 0 -21.089-25.84l-.043-.008a26.442 26.442 0 0 0 -10.485 0l-.043.008a26.42 26.42 0 0 0 -21.09 25.842v.245a6.347 6.347 0 0 0 -3.525 11.489 7.241 7.241 0 0 0 3.788 12.079 26.069 26.069 0 0 0 4.139 10.836h-10.374a20.427 20.427 0 0 0 -20.4 20.4v19.6a1.75 1.75 0 0 0 3.5 0v-19.6a16.923 16.923 0 0 1 16.9-16.9h12.78l8.214 15.675a1.749 1.749 0 0 0 1.212.9 1.723 1.723 0 0 0 .338.033 1.755 1.755 0 0 0 1.126-.41l2.246-1.888 4.426 3.67-5.35 18.018a1.75 1.75 0 1 0 3.355 1l4-13.475 4 13.475a1.749 1.749 0 0 0 1.677 1.252 1.768 1.768 0 0 0 .5-.072 1.75 1.75 0 0 0 1.18-2.176l-5.35-18.018 4.426-3.67 2.246 1.888a1.755 1.755 0 0 0 1.126.41 1.723 1.723 0 0 0 .338-.033 1.749 1.749 0 0 0 1.212-.9l8.214-15.675h12.778a16.923 16.923 0 0 1 16.9 16.9v19.6a1.75 1.75 0 1 0 3.5 0v-19.6a20.427 20.427 0 0 0 -20.4-20.402zm-29.18-57.3v9.442h-6.334v-9.443a22.47 22.47 0 0 1 6.334 0zm-21.823 9.437 3.012 4.263a1.75 1.75 0 0 0 2.859-2.02l-3.549-5.024a22.9 22.9 0 0 1 9.667-5.889v10.423a1.75 1.75 0 0 0 1.75 1.75h9.834a1.75 1.75 0 0 0 1.75-1.75v-10.422a22.9 22.9 0 0 1 9.667 5.889l-3.549 5.024a1.75 1.75 0 0 0 2.859 2.02l3.012-4.263a22.742 22.742 0 0 1 4.219 13.212v.234h-45.75v-.234a22.742 22.742 0 0 1 4.219-13.213zm-7.514 16.947h52.34a2.859 2.859 0 0 1 0 5.718h-52.34a2.859 2.859 0 0 1 0-5.718zm1.545 16.75a3.766 3.766 0 0 1 0-7.532h49.25a3.768 3.768 0 0 1 .089 7.535c-.045 0-.138-.008-.184-.008a1.751 1.751 0 0 0 -1.744 1.6 22.868 22.868 0 0 1 -45.572 0 1.839 1.839 0 0 0 -1.839-1.595zm15.361 29.788-3.819-7.288a26.223 26.223 0 0 0 8.733 3.157l-3.183 2.671h-.005zm9.264 2.979-3.71-3.076 3.71-3.119 3.71 3.119zm9.264-2.979-4.914-4.132a26.224 26.224 0 0 0 8.733-3.157z" data-original="#000000" class="active-path" data-old_color="#000000" fill="#202095"/><path d="m50.5 58.722h2.057a2.276 2.276 0 0 0 4.358-.031 1.748 1.748 0 0 0 -.311-3.469h-6.104a1.75 1.75 0 0 0 0 3.5z" data-original="#000000" class="active-path" data-old_color="#000000" fill="#202095"/><path d="m71.087 58.69a2.276 2.276 0 0 0 4.358.031h2.055a1.75 1.75 0 0 0 0-3.5h-6.1a1.748 1.748 0 0 0 -.311 3.469z" data-original="#000000" class="active-path" data-old_color="#000000" fill="#202095"/><path d="m96.86 96.268a1.75 1.75 0 0 0 -1.75 1.75v15.62a1.75 1.75 0 0 0 3.5 0v-15.62a1.75 1.75 0 0 0 -1.75-1.75z" data-original="#000000" class="active-path" data-old_color="#000000" fill="#202095"/><path d="m31.14 96.268a1.75 1.75 0 0 0 -1.75 1.75v15.62a1.75 1.75 0 0 0 3.5 0v-15.62a1.75 1.75 0 0 0 -1.75-1.75z" data-original="#000000" class="active-path" data-old_color="#000000" fill="#202095"/><path d="m89.5 102h-13.125a1.75 1.75 0 0 0 -1.75 1.75v5a1.75 1.75 0 0 0 1.75 1.75h13.125a1.75 1.75 0 0 0 1.75-1.75v-5a1.75 1.75 0 0 0 -1.75-1.75zm-1.75 5h-9.625v-1.5h9.625z" data-original="#000000" class="active-path" data-old_color="#000000" fill="#202095"/></g> </svg>
