<?xml version="1.0"?>
<svg xmlns="http://www.w3.org/2000/svg" xmlns:xlink="http://www.w3.org/1999/xlink" version="1.1" id="Capa_1" x="0px" y="0px" viewBox="0 0 512.014 512.014" style="enable-background:new 0 0 512.014 512.014;" xml:space="preserve" width="512px" height="512px"><g><path style="fill:#FFFFFF;" d="M458.68,160.007V373.34c0,0-10.667,53.333-53.333,53.333v74.667h-224v-85.333  c0-32-21.333-32-21.333-32h-64c-17.304,0.369-31.631-13.359-32-30.663c-0.01-0.446-0.01-0.891,0-1.337V312.22  c-8.74-8.141-20.071-12.938-32-13.547c-11.538,0.244-21.089-8.911-21.333-20.449c-0.006-0.295-0.006-0.589,0-0.884l53.333-96.64  v-20.693c0-82.475,66.859-149.333,149.333-149.333h85.333C381.134,10.673,458.68,77.553,458.68,160.007L458.68,160.007z" data-original="#FFFFFF" class=""/><circle style="fill:#87D2F3;" cx="341.347" cy="170.673" r="160" data-original="#87D2F3" class=""/><g>
	<path style="fill:#2170A6" d="M448.014,372.167c-1.525,6.4-11.829,43.84-42.667,43.84c-5.891,0-10.667,4.776-10.667,10.667v64   H192.014v-74.667c0-33.749-20.928-42.667-32-42.667h-64c-11.064,0.718-20.615-7.668-21.333-18.732   c-0.056-0.866-0.056-1.735,0-2.602v-39.765c-0.002-3.051-1.31-5.956-3.595-7.979c-10.695-9.864-24.537-15.623-39.072-16.256   c-5.135,0.624-9.803-3.033-10.427-8.167c-0.006-0.047-0.011-0.095-0.016-0.142l51.776-93.867c0.873-1.577,1.331-3.35,1.333-5.152   v-20.672C74.768,83.46,136.8,21.428,213.347,21.34V0.007c-88.324,0.1-159.9,71.676-160,160v17.931l-52,94.251   c-0.873,1.577-1.331,3.35-1.333,5.152c-0.502,17.171,13.01,31.498,30.181,32c0.606,0.018,1.213,0.018,1.819,0   c7.758,0.431,15.2,3.218,21.333,7.989v34.677c-0.67,22.895,17.347,41.997,40.242,42.667c0.808,0.024,1.617,0.024,2.425,0h63.691   c1.835,0.128,10.976,1.707,10.976,21.333v85.333c0,5.891,4.776,10.667,10.667,10.667h224c5.891,0,10.667-4.776,10.667-10.667   v-64.981c33.333-6.304,49.237-41.483,53.12-60.928c0.145-0.687,0.217-1.388,0.213-2.091v-32h-21.333V372.167z" data-original="#2170A6" class="active-path" data-old_color="#2170A6"/>
	<path style="fill:#2170A6" d="M341.347,341.34c94.257,0,170.667-76.41,170.667-170.667S435.603,0.007,341.347,0.007   S170.68,76.417,170.68,170.673C170.792,264.884,247.137,341.228,341.347,341.34z M341.347,21.34   c82.475,0,149.333,66.859,149.333,149.333s-66.859,149.333-149.333,149.333s-149.333-66.859-149.333-149.333   C192.102,88.235,258.909,21.428,341.347,21.34z" data-original="#2170A6" class="active-path" data-old_color="#2170A6"/>
	<path style="fill:#2170A6" d="M341.347,266.673c13.281-0.001,26.228-4.16,37.024-11.893l19.435,19.435l15.083-15.083   l-19.435-19.435c7.734-10.796,11.893-23.743,11.893-37.024v-64c0-35.346-28.654-64-64-64s-64,28.654-64,64v64   C277.382,238.005,306.015,266.638,341.347,266.673L341.347,266.673z M298.68,138.673c0-23.564,19.103-42.667,42.667-42.667   c23.564,0,42.667,19.103,42.667,42.667v64c-0.037,7.593-2.127,15.034-6.048,21.536l-29.077-29.077l-15.083,15.083l29.077,29.077   c-6.502,3.921-13.943,6.011-21.536,6.048c-23.564,0-42.667-19.103-42.667-42.667L298.68,138.673z" data-original="#2170A6" class="active-path" data-old_color="#2170A6"/>
</g></g> </svg>
