<?xml version="1.0"?>
<svg xmlns="http://www.w3.org/2000/svg" xmlns:xlink="http://www.w3.org/1999/xlink" version="1.1" id="Capa_1" x="0px" y="0px" viewBox="0 0 428.16 428.16" style="enable-background:new 0 0 428.16 428.16;" xml:space="preserve" width="512px" height="512px" class=""><g><g>
	<g>
		<path d="M393.8,110.208c-0.512-11.264-0.512-22.016-0.512-32.768c0-8.704-6.656-15.36-15.36-15.36    c-64,0-112.64-18.432-153.088-57.856c-6.144-5.632-15.36-5.632-21.504,0C162.888,43.648,114.248,62.08,50.248,62.08    c-8.704,0-15.36,6.656-15.36,15.36c0,10.752,0,21.504-0.512,32.768c-2.048,107.52-5.12,254.976,174.592,316.928l5.12,1.024    l5.12-1.024C398.408,365.184,395.848,218.24,393.8,110.208z M198.728,390.784c-77.312-32.768-110.592-83.968-124.416-141.312    l124.416-40.448V390.784z M359.496,218.752l-130.048-41.984V48.256c37.376,27.648,80.896,41.984,133.12,44.032    c0,6.144,0,12.288,0.512,18.432C363.592,146.56,364.104,183.424,359.496,218.752z" data-original="#000000" class="active-path" data-old_color="#000000" fill="#FFFFFF"/>
	</g>
</g></g> </svg>
