<?xml version="1.0"?>
<svg xmlns="http://www.w3.org/2000/svg" id="Capa_1" enable-background="new 0 0 512 512" height="512px" viewBox="0 0 512 512" width="512px"><g><g><path d="m331 301c38.452 0 72.012-24.023 72.349-24.272l18.486-13.418 17.886 14.238c.013 0 1.756 1.17 4.398 2.787 4.33-17.43 6.881-35.565 6.881-54.335 0-124.265-100.735-226-225-226s-226 101.735-226 226 101.735 225 226 225c29.22 0 57.054-5.748 82.667-15.883-4.94-15.558-7.667-32.014-7.667-48.981v-85.136zm30-90h30v30h-30zm-150-150h30v30h-30zm-120 180h-30v-30h30zm150 150h-30v-30h30zm-8.789-150-55.605 55.605-21.211-21.211 55.605-55.605v-98.789h30v90h60v30z" data-original="#000000" class="active-path" data-old_color="#000000" fill="#202095"/><path d="m406.322 392.201c1.304 12.114 6.489 23.467 14.678 32.344 8.188-8.877 13.374-20.229 14.678-32.344-4.907-1.787-9.8-3.735-14.678-5.859-4.878 2.124-9.771 4.072-14.678 5.859z" data-original="#000000" class="active-path" data-old_color="#000000" fill="#202095"/><path d="m421 300.985c-2.695 1.963-42.334 30.015-90 30.015v55.137c0 56.748 36.167 107.919 90 125.863 53.833-17.944 91-69.115 91-125.863v-55.137c-49.146 0-90.751-29.81-90.927-29.956zm45 69.507v15.645c0 27.964-13.564 54.316-36.299 70.518l-8.701 6.196-8.701-6.196c-22.735-16.202-36.299-42.554-36.299-70.518v-15.645c9.423-3.164 19.51-5.275 38.672-14.194l6.328-2.93 6.328 2.93c18.715 8.71 31.599 11.819 38.672 14.194z" data-original="#000000" class="active-path" data-old_color="#000000" fill="#202095"/></g></g> </svg>
